#define canvas_rotate_width 9
#define canvas_rotate_height 9
static unsigned char canvas_rotate_bits[] = {
  0x00, 0x00, 0x38, 0x00, 0x40, 0x00, 0x82, 0x00, 0x87, 0x00, 0x82, 0x00,
  0x44, 0x00, 0x38, 0x00, 0x00, 0x00, };
