#define rotatepos_width 15
#define rotatepos_height 15
static char rotatepos_bits[] = {
 0xc0,0x01,0xb0,0x06,0x8c,0x18,0x84,0x10,0x82,0x20,0x82,0x20,0x81,0x40,0xff,
 0x7f,0x81,0x40,0x82,0x20,0x82,0x20,0x84,0x10,0x8c,0x18,0xb0,0x06,0xc0,0x01
 };

