#define zoompointer_width 14
#define zoompointer_height 14
#define zoompointer_x_hot 4
#define zoompointer_y_hot 4
static char zoompointer_bits[] = {
  0x78, 0x00, 0x84, 0x00, 0x32, 0x01, 0x09, 0x02, 0x05, 0x02, 0x01, 0x02, 
  0x01, 0x02, 0x02, 0x01, 0x84, 0x03, 0x78, 0x07, 0x00, 0x0e, 0x00, 0x1c, 
  0x00, 0x38, 0x00, 0x30, };
