/* XPM */
static char * open[] = {
"17 16 5 1",
". c #808000",
"# c #ffff00",
"a c #000000",
"b c #ffffff",
"c c None",
"ccccccccccccccccc",
"ccccccccccccccccc",
"ccccccccccaaacccc",
"cccccccccacccacac",
"ccccccccccccccaac",
"caaacccccccccaaac",
"a#b#aaaaaaaaccccc",
"ab#b#b##b#baccccc",
"a#b#b#bb#b#accccc",
"ab#b#aaaaaaaaaaaa",
"a#b#a..........ac",
"ab#a..........acc",
"a#a..........accc",
"aa..........acccc",
"aaaaaaaaaaaaccccc",
"ccccccccccccccccc"};
