/* XPM */
static char * cut[] = {
"17 16 3 1",
". c #000000",
"# c None",
"a c #000080",
"#################",
"######.###.######",
"######.###.######",
"######.###.######",
"######..#..######",
"#######.#.#######",
"#######...#######",
"########.########",
"#######a.a#######",
"#######a#aaa#####",
"#####aaa#a##a####",
"####a##a#a##a####",
"####a##a#a##a####",
"####a##a##aa#####",
"#####aa##########",
"#####aa##########"};