#define default_width 9
#define default_height 10
static unsigned char default_bits[] = {
  0x38, 0x00, 0x38, 0x00, 0x38, 0x00, 0x38, 0x00, 0x38, 0x00, 0xff, 0x01,
  0xfe, 0x00, 0x7c, 0x00, 0x38, 0x00, 0x10, 0x00, };
