/* XPM */
static char * paste[] = {
"17 16 7 1",
". c #808080",
"# c #808000",
"a c #ffff00",
"b c #000000",
"c c #ffffff",
"d c None",
"e c #000080",
"ddddddddddddddddd",
"ddddddddddddddddd",
"ddddddbbbbddddddd",
"dbbbbbbaabbbbbddd",
"b##.#babbab.#.bdd",
"b...bddddddb.#bdd",
"b##.bbbbbbbb..bdd",
"b..#.#.#.#.#.#bdd",
"b##.#.#eeeeeeebdd",
"b..#.#.eccccceedd",
"b##.#.#eccccceced",
"b..#.#.eceeeceeee",
"b##.#.#ecccccccce",
"b..#.#.eceeeeeece",
"dbbbbbbecccccccce",
"dbbbbbbecccccccce"};