/* XPM */
static char * print[] = {
"17 16 5 1",
". c #ffff00",
"# c #808080",
"a c #000000",
"b c #ffffff",
"c c None",
"ccccccccccccccccc",
"ccccccccccccccccc",
"ccccccaaaaaaaaacc",
"cccccabbbbbbbbacc",
"cccccabaaaaabaccc",
"ccccabbbbbbbbaccc",
"ccccabaaaaabaaaac",
"cccabbbbbbbbacaca",
"ccaaaaaaaaaacacaa",
"caccccccccccacaca",
"caaaaaaaaaaaaacca",
"cacccccc###ccacac",
"cacccccc...ccaaac",
"caaaaaaaaaaaaacac",
"ccacccccccccacacc",
"cccaaaaaaaaaaaccc"};