/* XPM */
static char * redo[] = {
"17 16 3 1",
". c #808080",
"# c None",
"a c #000080",
"#################",
"#################",
"#################",
"#################",
"#################",
"####.aaaa########",
"###.a####aa###a##",
"###a#######a#aa##",
"###a########aaa##",
"###a#######aaaa##",
"###.a#####aaaaa##",
"####a.###########",
"#################",
"#################",
"#################",
"#################"};