/* XPM */
static char * rotate[] = {
"19 17 5 1",
". c None",
"# c #d6d6d6",
"a c #7f7f7f",
"b c #00007f",
"c c #cccccc",
"...................",
"...................",
"...................",
"..........bb.......",
"..bbbbb.....bb.....",
".....bb.....aab....",
"....b.b.......ba...",
"...b..b........b...",
"...ba.b........b...",
"...ba..........b...",
"....ba........ba...",
"....ba........ba...",
".....bb.....bba....",
"......abbbbbaa.....",
"........aaaa.......",
"...................",
"..................."};