/* XPM */
static char * file_xpm[] = {
"12 12 4 1",
" 	s None	c None",
".	c black",
"X	c #FFFFFFFFF3CE",
"o	c white",
" ........   ",
" .XXXXXX.o  ",
" .X.o..X... ",
" .XXXXXXXX. ",
" .X...o..X. ",
" .XXXXXXXX. ",
" .X..o...X. ",
" .XXXXXXXX. ",
" .X.o..o.X. ",
" .XXXXXXXX. ",
" .XXXXXXXX. ",
" .......... "};
