/* XPM */
static char * undo[] = {
"17 16 3 1",
". c #808080",
"# c None",
"a c #000080",
"#################",
"#################",
"#################",
"#################",
"#################",
"#########aaaa.###",
"##a###aaa####a.##",
"##aa#a########a##",
"##aaa#########a##",
"##aaaa########a##",
"##aaaaaa#####a.##",
"############.a###",
"#################",
"#################",
"#################",
"#################"};