/* XPM */
static char * unknown[] = {
"8 15 4 1",
". c #000000",
"# c #808080",
"a c #c0c0c0",
"b c None",
"bba##abb",
"b#aba..b",
"##bbba.#",
"..bbbb..",
"#.abbb..",
"bbbbba.#",
"bbbbb..b",
"bbbba.ab",
"bbbb#abb",
"bbbb#bbb",
"bbbaabbb",
"bbbabbbb",
"bbbbbbbb",
"bba..bbb",
"bba..bbb"};